<?xml version="1.0" encoding="utf-8"?>
<!-- Generator: Adobe Illustrator 22.1.0, SVG Export Plug-In . SVG Version: 6.00 Build 0)  -->
<svg version="1.1" id="Layer_1" xmlns="http://www.w3.org/2000/svg" xmlns:xlink="http://www.w3.org/1999/xlink" x="0px" y="0px"
	 viewBox="0 0 16 10" style="enable-background:new 0 0 16 10;" xml:space="preserve" fill="#FFF">
<g>
	<path d="M0,5.5c0-0.6,0.5-1.1,1.1-1.1c0.4,0,0.6,0.2,0.6,0.2l3.4,3l9.2-7.3C14.5,0.2,14.7,0,14.9,0C15.5,0,16,0.5,16,1.1
		c0,0.4-0.2,0.7-0.4,0.9l-10,7.8C5.4,10,5.2,10,5,10c-0.4,0-0.5-0.1-0.7-0.2l-4-3.5C0,6,0,5.5,0,5.5z"/>
</g>
</svg>
